<svg width="893" height="200" viewBox="0 0 893 200" fill="none" xmlns="http://www.w3.org/2000/svg">
<path d="M892.666 199.333H0.666504V187.333H892.666V199.333Z" fill="#DDDDDD"/>
<path d="M368 191.333V16.6667H302.667V191.333H368Z" fill="#DDDDDD"/>
<path d="M499.113 194V28.8333H437.333V194H499.113Z" fill="#DDDDDD"/>
<path d="M448.667 48.6666H442V72.6666H448.667V48.6666Z" fill="white"/>
<path d="M459.333 48.6666H452.667V72.6666H459.333V48.6666Z" fill="white"/>
<path d="M482 48.6666H475.333V72.6666H482V48.6666Z" fill="white"/>
<path d="M494 48.6666H487.333V72.6666H494V48.6666Z" fill="white"/>
<path d="M448.667 78H442V102H448.667V78Z" fill="white"/>
<path d="M471.333 78H464.667V102H471.333V78Z" fill="white"/>
<path d="M482 78H475.333V102H482V78Z" fill="white"/>
<path d="M448.667 107.333H442V131.333H448.667V107.333Z" fill="white"/>
<path d="M459.333 107.333H452.667V131.333H459.333V107.333Z" fill="white"/>
<path d="M471.333 107.333H464.667V131.333H471.333V107.333Z" fill="white"/>
<path d="M494 107.333H487.333V131.333H494V107.333Z" fill="white"/>
<path d="M448.667 136.667H442V159.333H448.667V136.667Z" fill="white"/>
<path d="M471.333 136.667H464.667V159.333H471.333V136.667Z" fill="white"/>
<path d="M482 136.667H475.333V159.333H482V136.667Z" fill="white"/>
<path d="M494 136.667H487.333V159.333H494V136.667Z" fill="white"/>
<path d="M427.553 194V56.9147H376V194H427.553Z" fill="#DDDDDD"/>
<path d="M388.667 74H384.667V94H388.667V74Z" fill="white"/>
<path d="M398 74H394V94H398V74Z" fill="white"/>
<path d="M407.333 74H403.333V94H407.333V74Z" fill="white"/>
<path d="M416.667 74H412.667V94H416.667V74Z" fill="white"/>
<path d="M388.667 99.3334H384.667V119.333H388.667V99.3334Z" fill="white"/>
<path d="M398 99.3334H394V119.333H398V99.3334Z" fill="white"/>
<path d="M407.333 99.3334H403.333V119.333H407.333V99.3334Z" fill="white"/>
<path d="M416.667 99.3334H412.667V119.333H416.667V99.3334Z" fill="white"/>
<path d="M388.667 122H384.667V142H388.667V122Z" fill="white"/>
<path d="M398 122H394V142H398V122Z" fill="white"/>
<path d="M407.333 122H403.333V142H407.333V122Z" fill="white"/>
<path d="M416.667 122H412.667V142H416.667V122Z" fill="white"/>
<path d="M388.667 147.333H384.667V167.333H388.667V147.333Z" fill="white"/>
<path d="M398 147.333H394V167.333H398V147.333Z" fill="white"/>
<path d="M407.333 147.333H403.333V167.333H407.333V147.333Z" fill="white"/>
<path d="M416.667 147.333H412.667V167.333H416.667V147.333Z" fill="white"/>
<path d="M507.333 15.3333V194H558V15.3333H507.333Z" fill="#DDDDDD"/>
<path d="M536.833 26V30H550V26H536.833Z" fill="white"/>
<path d="M530 26H515.333V30H530V26Z" fill="white"/>
<path d="M530 34H515.333V38H530V34Z" fill="white"/>
<path d="M536.833 34V38H550V34H536.833Z" fill="white"/>
<path d="M530 50H515.333V54H530V50Z" fill="white"/>
<path d="M536.833 50V54H550V50H536.833Z" fill="white"/>
<path d="M530 58H515.333V62H530V58Z" fill="white"/>
<path d="M536.833 58V62H550V58H536.833Z" fill="white"/>
<path d="M530 66H515.333V70H530V66Z" fill="white"/>
<path d="M536.833 66V70H550V66H536.833Z" fill="white"/>
<path d="M530 74H515.333V78H530V74Z" fill="white"/>
<path d="M536.833 74V78H550V74H536.833Z" fill="white"/>
<path d="M530 82H515.333V86H530V82Z" fill="white"/>
<path d="M536.833 82V86H550V82H536.833Z" fill="white"/>
<path d="M530 90H515.333V94H530V90Z" fill="white"/>
<path d="M536.833 90V94H550V90H536.833Z" fill="white"/>
<path d="M536.833 98V102H550V98H536.833Z" fill="white"/>
<path d="M530 98H515.333V102H530V98Z" fill="white"/>
<path d="M536.833 106V110H550V106H536.833Z" fill="white"/>
<path d="M530 106H515.333V110H530V106Z" fill="white"/>
<path d="M530 122H515.333V126H530V122Z" fill="white"/>
<path d="M536.833 122V126H550V122H536.833Z" fill="white"/>
<path d="M530 130H515.333V134H530V130Z" fill="white"/>
<path d="M536.833 130V134H550V130H536.833Z" fill="white"/>
<path d="M530 138H515.333V142H530V138Z" fill="white"/>
<path d="M536.833 138V142H550V138H536.833Z" fill="white"/>
<path d="M530 154H515.333V158H530V154Z" fill="white"/>
<path d="M536.833 154V158H550V154H536.833Z" fill="white"/>
<path d="M530 162H515.333V166H530V162Z" fill="white"/>
<path d="M536.833 162V166H550V162H536.833Z" fill="white"/>
<path d="M530 170H515.333V174H530V170Z" fill="white"/>
<path d="M536.833 170V174H550V170H536.833Z" fill="white"/>
<path d="M318 48.6666H308.667V39.3333H318V48.6666Z" fill="white"/>
<path d="M331.333 48.6666H323.333V39.3333H331.333V48.6666Z" fill="white"/>
<path d="M359.333 48.6666H351.333V39.3333H359.333V48.6666Z" fill="white"/>
<path d="M318 62H308.667V52.6667H318V62Z" fill="white"/>
<path d="M331.333 62H323.333V52.6667H331.333V62Z" fill="white"/>
<path d="M346 62H338V52.6667H346V62Z" fill="white"/>
<path d="M359.333 62H351.333V52.6667H359.333V62Z" fill="white"/>
<path d="M331.333 75.3334H323.333V66H331.333V75.3334Z" fill="white"/>
<path d="M346 75.3334H338V66H346V75.3334Z" fill="white"/>
<path d="M359.333 75.3334H351.333V66H359.333V75.3334Z" fill="white"/>
<path d="M318 88.6666H308.667V79.3333H318V88.6666Z" fill="white"/>
<path d="M331.333 88.6666H323.333V79.3333H331.333V88.6666Z" fill="white"/>
<path d="M359.333 88.6666H351.333V79.3333H359.333V88.6666Z" fill="white"/>
<path d="M318 102H308.667V92.6667H318V102Z" fill="white"/>
<path d="M331.333 102H323.333V92.6667H331.333V102Z" fill="white"/>
<path d="M346 102H338V92.6667H346V102Z" fill="white"/>
<path d="M359.333 102H351.333V92.6667H359.333V102Z" fill="white"/>
<path d="M331.333 115.333H323.333V106H331.333V115.333Z" fill="white"/>
<path d="M346 115.333H338V106H346V115.333Z" fill="white"/>
<path d="M359.333 115.333H351.333V106H359.333V115.333Z" fill="white"/>
<path d="M318 128.667H308.667V119.333H318V128.667Z" fill="white"/>
<path d="M346 128.667H338V119.333H346V128.667Z" fill="white"/>
<path d="M359.333 128.667H351.333V119.333H359.333V128.667Z" fill="white"/>
<path d="M318 142H308.667V132.667H318V142Z" fill="white"/>
<path d="M331.333 142H323.333V132.667H331.333V142Z" fill="white"/>
<path d="M346 142H338V132.667H346V142Z" fill="white"/>
<path d="M359.333 142H351.333V132.667H359.333V142Z" fill="white"/>
<path d="M252.667 168.667H244.667V159.333H252.667V168.667Z" fill="white"/>
<path d="M622.667 194V92.6667H564V194H622.667Z" fill="#DDDDDD"/>
<path d="M606 110H600.667V103.333H606V110Z" fill="white"/>
<path d="M606 119.333H600.667V112.667H606V119.333Z" fill="white"/>
<path d="M606 128.667H600.667V122H606V128.667Z" fill="white"/>
<path d="M606 138H600.667V131.333H606V138Z" fill="white"/>
<path d="M606 147.333H600.667V140.667H606V147.333Z" fill="white"/>
<path d="M606 156.667H600.667V150H606V156.667Z" fill="white"/>
<path d="M606 166H600.667V159.333H606V166Z" fill="white"/>
<path d="M606 175.333H600.667V168.667H606V175.333Z" fill="white"/>
<path d="M584.667 110H579.333V103.333H584.667V110Z" fill="white"/>
<path d="M584.667 119.333H579.333V112.667H584.667V119.333Z" fill="white"/>
<path d="M584.667 128.667H579.333V122H584.667V128.667Z" fill="white"/>
<path d="M584.667 138H579.333V131.333H584.667V138Z" fill="white"/>
<path d="M584.667 147.333H579.333V140.667H584.667V147.333Z" fill="white"/>
<path d="M584.667 156.667H579.333V150H584.667V156.667Z" fill="white"/>
<path d="M584.667 166H579.333V159.333H584.667V166Z" fill="white"/>
<path d="M584.667 175.333H579.333V168.667H584.667V175.333Z" fill="white"/>
<path d="M595.333 110H590V103.333H595.333V110Z" fill="white"/>
<path d="M595.333 119.333H590V112.667H595.333V119.333Z" fill="white"/>
<path d="M595.333 128.667H590V122H595.333V128.667Z" fill="white"/>
<path d="M595.333 138H590V131.333H595.333V138Z" fill="white"/>
<path d="M595.333 147.333H590V140.667H595.333V147.333Z" fill="white"/>
<path d="M595.333 156.667H590V150H595.333V156.667Z" fill="white"/>
<path d="M595.333 166H590V159.333H595.333V166Z" fill="white"/>
<path d="M595.333 175.333H590V168.667H595.333V175.333Z" fill="white"/>
<path d="M279.333 59.3333H274V48.6667H279.333V59.3333ZM279.333 78H274V67.3333H279.333V78ZM279.333 96.6667H274V86H279.333V96.6667ZM279.333 115.333H274V104.667H279.333V115.333ZM279.333 134H274V123.333H279.333V134ZM279.333 152.667H274V142H279.333V152.667ZM279.333 171.333H274V160.667H279.333V171.333ZM268.667 59.3333H263.333V48.6667H268.667V59.3333ZM268.667 78H263.333V67.3333H268.667V78ZM268.667 96.6667H263.333V86H268.667V96.6667ZM268.667 115.333H263.333V104.667H268.667V115.333ZM268.667 134H263.333V123.333H268.667V134ZM268.667 152.667H263.333V142H268.667V152.667ZM268.667 171.333H263.333V160.667H268.667V171.333ZM258 59.3333H252.667V48.6667H258V59.3333ZM258 78H252.667V67.3333H258V78ZM258 96.6667H252.667V86H258V96.6667ZM258 115.333H252.667V104.667H258V115.333ZM258 134H252.667V123.333H258V134ZM258 152.667H252.667V142H258V152.667ZM258 171.333H252.667V160.667H258V171.333ZM252.667 24.6667H258V35.3333H252.667V24.6667ZM263.333 24.6667H268.667V35.3333H263.333V24.6667ZM274 24.6667H279.333V35.3333H274V24.6667ZM286 42V15.3333H268.667V0.666678H263.333V15.3333H247.333V42H238V194H294V42H286Z" fill="#DDDDDD"/>
<path d="M252.667 59.3334H258V48.6667H252.667V59.3334Z" fill="white"/>
<path d="M263.333 59.3334H268.667V48.6667H263.333V59.3334Z" fill="white"/>
<path d="M274 59.3334H279.333V48.6667H274V59.3334Z" fill="white"/>
<path d="M252.667 78H258V67.3333H252.667V78Z" fill="white"/>
<path d="M263.333 78H268.667V67.3333H263.333V78Z" fill="white"/>
<path d="M274 78H279.333V67.3333H274V78Z" fill="white"/>
<path d="M252.667 96.6666H258V86H252.667V96.6666Z" fill="white"/>
<path d="M263.333 96.6666H268.667V86H263.333V96.6666Z" fill="white"/>
<path d="M274 96.6666H279.333V86H274V96.6666Z" fill="white"/>
<path d="M252.667 115.333H258V104.667H252.667V115.333Z" fill="white"/>
<path d="M263.333 115.333H268.667V104.667H263.333V115.333Z" fill="white"/>
<path d="M274 115.333H279.333V104.667H274V115.333Z" fill="white"/>
<path d="M252.667 134H258V123.333H252.667V134Z" fill="white"/>
<path d="M263.333 134H268.667V123.333H263.333V134Z" fill="white"/>
<path d="M274 134H279.333V123.333H274V134Z" fill="white"/>
<path d="M252.667 152.667H258V142H252.667V152.667Z" fill="white"/>
<path d="M263.333 152.667H268.667V142H263.333V152.667Z" fill="white"/>
<path d="M274 152.667H279.333V142H274V152.667Z" fill="white"/>
<path d="M252.667 171.333H258V160.667H252.667V171.333Z" fill="white"/>
<path d="M263.333 171.333H268.667V160.667H263.333V171.333Z" fill="white"/>
<path d="M274 171.333H279.333V160.667H274V171.333Z" fill="white"/>
<path d="M258 24.6667H252.667V35.3334H258V24.6667Z" fill="white"/>
<path d="M268.667 24.6667H263.333V35.3334H268.667V24.6667Z" fill="white"/>
<path d="M279.333 24.6667H274V35.3334H279.333V24.6667Z" fill="white"/>
<path d="M210 130H206V111.333H210V130ZM210 163.333H206V144.667H210V163.333ZM198 130H194V111.333H198V130ZM198 163.333H194V144.667H198V163.333ZM186 130H182V111.333H186V130ZM186 163.333H182V144.667H186V163.333ZM155.333 163.333H151.333V144.667H155.333V163.333ZM143.333 163.333H139.333V144.667H143.333V163.333ZM131.333 163.333H127.333V144.667H131.333V163.333ZM206 96.6666V78H210V96.6666H206ZM198 96.6666H194V78H198V96.6666ZM182 96.6666V78H186V96.6666H182ZM218 98V75.3333H222.444C222.444 62.228 212.667 51.4333 199.333 49.7946V36.6666H194V49.656C182 50.68 170.889 61.772 170.889 75.3333H174V98H163.333V116.615C159.333 109.731 152.667 104.976 143.333 104.323V95.3333H138V104.461C126 106.1 116.223 116.895 116.223 130H119.333V192.667H171.333V190H174.667H218.667H228.667V98H218Z" fill="#DDDDDD"/>
<path d="M182 78V96.6666H186V78H182Z" fill="white"/>
<path d="M194 80.6666V96.6666H198V78H194V80.6666Z" fill="white"/>
<path d="M206 78V96.6666H210V78H206Z" fill="white"/>
<path d="M182 130H186V111.333H182V130Z" fill="white"/>
<path d="M194 130H198V111.333H194V130Z" fill="white"/>
<path d="M206 130H210V111.333H206V130Z" fill="white"/>
<path d="M127.333 163.333H131.333V144.667H127.333V163.333Z" fill="white"/>
<path d="M139.333 163.333H143.333V144.667H139.333V163.333Z" fill="white"/>
<path d="M151.333 163.333H155.333V144.667H151.333V163.333Z" fill="white"/>
<path d="M182 163.333H186V144.667H182V163.333Z" fill="white"/>
<path d="M194 163.333H198V144.667H194V163.333Z" fill="white"/>
<path d="M206 163.333H210V144.667H206V163.333Z" fill="white"/>
<path d="M110 190H66V95.3333H110V190Z" fill="#DDDDDD"/>
<path d="M76.6668 116.667H71.3335V107.333H76.6668V116.667Z" fill="white"/>
<path d="M95.3333 116.667H90V107.333H95.3333V116.667Z" fill="white"/>
<path d="M104.667 116.667H99.3335V107.333H104.667V116.667Z" fill="white"/>
<path d="M76.6668 131.333H71.3335V122H76.6668V131.333Z" fill="white"/>
<path d="M85.9998 131.333H80.6665V122H85.9998V131.333Z" fill="white"/>
<path d="M95.3333 131.333H90V122H95.3333V131.333Z" fill="white"/>
<path d="M76.6668 147.333H71.3335V136.667H76.6668V147.333Z" fill="white"/>
<path d="M95.3333 147.333H90V136.667H95.3333V147.333Z" fill="white"/>
<path d="M104.667 147.333H99.3335V136.667H104.667V147.333Z" fill="white"/>
<path d="M76.6668 162H71.3335V152.667H76.6668V162Z" fill="white"/>
<path d="M85.9998 162H80.6665V152.667H85.9998V162Z" fill="white"/>
<path d="M104.667 162H99.3335V152.667H104.667V162Z" fill="white"/>
<path d="M754 190H794V103.333H754V190Z" fill="#DDDDDD"/>
<path d="M784.667 123.333H790V114H784.667V123.333Z" fill="white"/>
<path d="M767.333 123.333H772.667V114H767.333V123.333Z" fill="white"/>
<path d="M759.333 123.333H763.333V114H759.333V123.333Z" fill="white"/>
<path d="M784.667 136.667H790V127.333H784.667V136.667Z" fill="white"/>
<path d="M775.333 136.667H780.667V127.333H775.333V136.667Z" fill="white"/>
<path d="M767.333 136.667H772.667V127.333H767.333V136.667Z" fill="white"/>
<path d="M784.667 151.333H790V140.667H784.667V151.333Z" fill="white"/>
<path d="M767.333 151.333H772.667V140.667H767.333V151.333Z" fill="white"/>
<path d="M759.333 151.333H763.333V140.667H759.333V151.333Z" fill="white"/>
<path d="M784.667 164.667H790V155.333H784.667V164.667Z" fill="white"/>
<path d="M775.333 164.667H780.667V155.333H775.333V164.667Z" fill="white"/>
<path d="M759.333 164.667H763.333V155.333H759.333V164.667Z" fill="white"/>
<path d="M735.333 144.667H732.667V131.333H735.333V144.667ZM735.333 164.667H732.667V151.333H735.333V164.667ZM722 144.667H719.333V131.333H722V144.667ZM708.667 144.667H706V131.333H708.667V144.667ZM708.667 164.667H706V151.333H708.667V164.667ZM695.333 164.667H692.667V151.333H695.333V164.667ZM682 144.667H679.333V131.333H682V144.667ZM682 164.667H679.333V151.333H682V164.667ZM668.667 144.667H666V131.333H668.667V144.667ZM655.333 164.667H652.667V151.333H655.333V164.667ZM642 144.667H639.333V131.333H642V144.667ZM642 164.667H639.333V151.333H642V164.667ZM667.333 112.667H708.667V118H667.333V112.667ZM720.667 118V111.333H725.328C725.211 92.6667 710 76.424 690 75.3893V55.3333H684.667V75.4907C667.333 77.1694 652.12 92.6667 652.005 111.333H655.333V118H630V190H746V118H720.667Z" fill="#DDDDDD"/>
<path d="M639.333 144.667H642V131.333H639.333V144.667Z" fill="white"/>
<path d="M679.333 144.667H682V131.333H679.333V144.667Z" fill="white"/>
<path d="M719.333 144.667H722V131.333H719.333V144.667Z" fill="white"/>
<path d="M732.667 144.667H735.333V131.333H732.667V144.667Z" fill="white"/>
<path d="M639.333 164.667H642V151.333H639.333V164.667Z" fill="white"/>
<path d="M652.667 164.667H655.333V151.333H652.667V164.667Z" fill="white"/>
<path d="M679.333 164.667H682V151.333H679.333V164.667Z" fill="white"/>
<path d="M692.667 164.667H695.333V151.333H692.667V164.667Z" fill="white"/>
<path d="M706 144.667H708.667V131.333H706V144.667Z" fill="white"/>
<path d="M706 164.667H708.667V151.333H706V164.667Z" fill="white"/>
<path d="M666 144.667H668.667V131.333H666V144.667Z" fill="white"/>
<path d="M732.667 164.667H735.333V151.333H732.667V164.667Z" fill="white"/>
<path d="M708.667 112.667H667.333V118H708.667V112.667Z" fill="white"/>
</svg>
